<svg width="15" height="14" fill="none" xmlns="http://www.w3.org/2000/svg"><path fill-rule="evenodd" clip-rule="evenodd" d="M1.16667.107941C.798477.107941.5.406418.5.774607c0 .368193.298477.666663.66667.666663h1.77127l.46743 2.33539c.00284.01795.00639.03566.01063.0531l.96738 4.83333.00012.00056c.08356.42001.31212.79728.64571 1.06583.3319.26718.74674.40982 1.17262.40332h5.62067c.4259.0065.8408-.13614 1.1727-.40332.3337-.26867.5623-.64616.6458-1.06639v.00001l.001-.005.9271-4.86144c.0372-.19517-.0146-.39677-.1412-.54985-.1267-.15309-.315-.2417-.5137-.2417H4.61072L4.1381.643769C4.07574.332198 3.80215.107941 3.4844.107941H1.16667ZM5.69098 8.40238l-.81339-4.06394h8.23081l-.7756 4.06686c-.0228.11252-.0843.21354-.1737.28555-.09.07244-.2026.11092-.3181.10871v-.00013H6.19614v-.00012l-.01277.00025c-.1155.00221-.22809-.03627-.31807-.10871-.08999-.07243-.15162-.17421-.17413-.28751l-.00019-.00096ZM4.55739 12.3634c0-.688.55771-1.2457 1.24568-1.2457.68798 0 1.24569.5577 1.24569 1.2457 0 .6879-.55771 1.2457-1.24569 1.2457-.68797 0-1.24568-.5578-1.24568-1.2457Zm6.37331 0c0-.688.5577-1.2457 1.2457-1.2457.688 0 1.2457.5577 1.2457 1.2457 0 .6879-.5577 1.2457-1.2457 1.2457-.688 0-1.2457-.5578-1.2457-1.2457Z" fill="#2D3440"/></svg>