<?xml version="1.0" standalone="no"?>
<!DOCTYPE svg PUBLIC "-//W3C//DTD SVG 20010904//EN"
 "http://www.w3.org/TR/2001/REC-SVG-20010904/DTD/svg10.dtd">
<svg version="1.0" xmlns="http://www.w3.org/2000/svg"
 width="700.000000pt" height="700.000000pt" viewBox="0 0 700.000000 700.000000"
 preserveAspectRatio="xMidYMid meet">
<metadata>
Created by potrace 1.14, written by Peter Selinger 2001-2017
</metadata>
<g transform="translate(0.000000,700.000000) scale(0.100000,-0.100000)"
fill="#000000" stroke="none">
<path d="M3329 6996 c-2 -2 -47 -6 -99 -10 -301 -20 -644 -94 -952 -207 -62
-23 -117 -45 -123 -49 -5 -4 -21 -11 -34 -15 -42 -13 -213 -97 -330 -162 -740
-414 -1308 -1088 -1591 -1888 -37 -106 -109 -355 -116 -405 -3 -19 -7 -43 -10
-52 -8 -27 -24 -128 -49 -303 -20 -137 -26 -532 -12 -690 15 -160 17 -171 53
-390 12 -72 66 -280 104 -397 172 -538 470 -1021 876 -1419 96 -94 140 -134
244 -223 163 -138 473 -334 705 -445 229 -110 597 -234 788 -266 18 -3 79 -14
137 -25 197 -36 319 -45 590 -45 216 1 366 10 490 31 153 25 224 40 330 65
140 34 416 124 502 163 31 14 59 26 62 26 18 0 294 143 403 209 258 155 435
292 652 505 607 593 978 1390 1040 2236 9 119 7 478 -3 565 -3 28 -8 75 -12
105 -10 101 -45 294 -75 418 -169 694 -540 1311 -1070 1781 -132 118 -142 126
-241 199 -312 231 -654 406 -1023 525 -107 34 -325 90 -395 102 -19 3 -60 10
-90 15 -99 17 -114 19 -185 25 -38 4 -83 9 -100 11 -36 5 -461 14 -466 10z"/>
</g>
</svg>
